<?xml version="1.0" encoding="utf-8"?><svg viewBox="0 0 157.33 267.55" xmlns="http://www.w3.org/2000/svg" xmlns:xlink="http://www.w3.org/1999/xlink"><style>:root>svg{display:none}:root>svg:target{display:block}</style><svg viewBox="0 0 16 16" class="bbi bbi-chat" fill="currentColor" id="chat" xmlns="http://www.w3.org/2000/svg"><path fill-rule="evenodd" d="M2.678 11.894a1 1 0 0 1 .287.801 10.97 10.97 0 0 1-.398 2c1.395-.323 2.247-.697 2.634-.893a1 1 0 0 1 .71-.074A8.06 8.06 0 0 0 8 14c3.996 0 7-2.807 7-6 0-3.192-3.004-6-7-6S1 4.808 1 8c0 1.468.617 2.83 1.678 3.894zm-.493 3.905a21.682 21.682 0 0 1-.713.129c-.2.032-.352-.176-.273-.362a9.68 9.68 0 0 0 .244-.637l.003-.01c.248-.72.45-1.548.524-2.319C.743 11.37 0 9.76 0 8c0-3.866 3.582-7 8-7s8 3.134 8 7-3.582 7-8 7a9.06 9.06 0 0 1-2.347-.306c-.52.263-1.639.742-3.468 1.105z"/></svg><svg viewBox="0 0 16 16" class="abi abi-chat-left-text" fill="currentColor" id="chat-left-text" xmlns="http://www.w3.org/2000/svg"><path fill-rule="evenodd" d="M14 1H2a1 1 0 0 0-1 1v11.586l2-2A2 2 0 0 1 4.414 11H14a1 1 0 0 0 1-1V2a1 1 0 0 0-1-1zM2 0a2 2 0 0 0-2 2v12.793a.5.5 0 0 0 .854.353l2.853-2.853A1 1 0 0 1 4.414 12H14a2 2 0 0 0 2-2V2a2 2 0 0 0-2-2H2z"/><path fill-rule="evenodd" d="M3 3.5a.5.5 0 0 1 .5-.5h9a.5.5 0 0 1 0 1h-9a.5.5 0 0 1-.5-.5zM3 6a.5.5 0 0 1 .5-.5h9a.5.5 0 0 1 0 1h-9A.5.5 0 0 1 3 6zm0 2.5a.5.5 0 0 1 .5-.5h5a.5.5 0 0 1 0 1h-5a.5.5 0 0 1-.5-.5z"/></svg><svg fill="none" viewBox="0 0 16 16" id="country" xmlns="http://www.w3.org/2000/svg"><path fill-rule="evenodd" clip-rule="evenodd" d="M0 8a8 8 0 1 1 16 0A8 8 0 0 1 0 8Zm7.5-6.923c-.67.204-1.335.82-1.887 1.855A7.97 7.97 0 0 0 5.145 4H7.5V1.077ZM4.09 4H2.255a7.025 7.025 0 0 1 3.072-2.472 6.7 6.7 0 0 0-.597.933c-.247.464-.462.98-.64 1.539Zm-.582 3.5h-2.49c.062-.89.291-1.733.656-2.5H3.82c-.18.822-.285 1.659-.312 2.5ZM4.847 5H7.5v2.5H4.51A12.5 12.5 0 0 1 4.846 5h.001ZM8.5 5v2.5h2.99c-.028-.843-.14-1.68-.337-2.5H8.5ZM4.51 8.5H7.5V11H4.847a12.5 12.5 0 0 1-.338-2.5h.001Zm3.99 0V11h2.653c.187-.765.306-1.608.338-2.5H8.5ZM5.145 12H7.5v2.923c-.67-.204-1.335-.82-1.887-1.855A7.972 7.972 0 0 1 5.145 12Zm.182 2.472a6.694 6.694 0 0 1-.597-.933A9.267 9.267 0 0 1 4.09 12H2.255a7.024 7.024 0 0 0 3.072 2.472ZM3.82 11H1.674a6.958 6.958 0 0 1-.656-2.5h2.49c.03.877.138 1.718.312 2.5Zm6.853 3.472A7.025 7.025 0 0 0 13.745 12H11.91a9.27 9.27 0 0 1-.64 1.539 6.688 6.688 0 0 1-.597.933ZM8.5 12h2.355c-.13.367-.286.724-.468 1.068-.552 1.035-1.218 1.65-1.887 1.855V12Zm3.68-1h2.146c.365-.767.594-1.61.656-2.5h-2.49a13.653 13.653 0 0 1-.312 2.5Zm2.802-3.5h-2.49A13.653 13.653 0 0 0 12.18 5h2.146c.365.767.594 1.61.656 2.5ZM11.27 2.461c.247.464.462.98.64 1.539h1.835a7.024 7.024 0 0 0-3.072-2.472c.218.284.418.598.597.933ZM10.855 4H8.5V1.077c.67.204 1.335.82 1.887 1.855.173.324.33.682.468 1.068Z" fill="#000" fill-opacity=".5"/></svg><svg viewBox="0 0 16 16" class="dbi dbi-cursor" fill="currentColor" id="cursor" xmlns="http://www.w3.org/2000/svg"><path fill-rule="evenodd" d="M14.082 2.182a.5.5 0 0 1 .103.557L8.528 15.467a.5.5 0 0 1-.917-.007L5.57 10.694.803 8.652a.5.5 0 0 1-.006-.916l12.728-5.657a.5.5 0 0 1 .556.103zM2.25 8.184l3.897 1.67a.5.5 0 0 1 .262.263l1.67 3.897L12.743 3.52 2.25 8.184z"/></svg><svg fill="none" viewBox="0 0 16 12" id="email" xmlns="http://www.w3.org/2000/svg"><path fill-rule="evenodd" clip-rule="evenodd" d="M0 2a2 2 0 0 1 2-2h12a2 2 0 0 1 2 2v8a2 2 0 0 1-2 2H2a2 2 0 0 1-2-2V2Zm2-1a1 1 0 0 0-1 1v.217l7 4.2 7-4.2V2a1 1 0 0 0-1-1H2Zm13 2.383-4.758 2.855L15 9.114V3.383Zm-.034 6.878L9.271 6.82 8 7.583 6.728 6.82l-5.694 3.44A1 1 0 0 0 2 11h12a1 1 0 0 0 .966-.739ZM1 9.114l4.758-2.876L1 3.383V9.114Z" fill="#000" fill-opacity=".5"/></svg><svg viewBox="0 0 157.33 267.55" id="logo" xmlns="http://www.w3.org/2000/svg"><defs><style>.fcls-1{fill:#1a1a1a}</style></defs><path fill="none" id="fcanvas_background" d="M-1-1h159.33v269.55H-1z"/><path id="fsvg_1" d="M139.44 267.38h-6.12a9 9 0 0 1-9-9v-75.12H32.56v75.12a9 9 0 0 1-9 9h-6a9 9 0 0 1-9-9v-173l24 16v62.25h91.75v-62.25l24.13-16v173a9 9 0 0 1-9 9z" class="fcls-1"/><path id="fsvg_2" class="fcls-1" d="m1 44.88 77.5 44.88L156 44.88 78.5 0 1 44.88z"/></svg><svg viewBox="0 0 16 16" class="gbi gbi-people" fill="currentColor" id="people" xmlns="http://www.w3.org/2000/svg"><path fill-rule="evenodd" d="M15 14s1 0 1-1-1-4-5-4-5 3-5 4 1 1 1 1h8zm-7.978-1h7.956a.274.274 0 0 0 .014-.002l.008-.002c-.002-.264-.167-1.03-.76-1.72C13.688 10.629 12.718 10 11 10c-1.717 0-2.687.63-3.24 1.276-.593.69-.759 1.457-.76 1.72a1.05 1.05 0 0 0 .022.004zM11 7a2 2 0 1 0 0-4 2 2 0 0 0 0 4zm3-2a3 3 0 1 1-6 0 3 3 0 0 1 6 0zM6.936 9.28a5.88 5.88 0 0 0-1.23-.247A7.35 7.35 0 0 0 5 9c-4 0-5 3-5 4 0 .667.333 1 1 1h4.216A2.238 2.238 0 0 1 5 13c0-1.01.377-2.042 1.09-2.904.243-.294.526-.569.846-.816zM4.92 10c-1.668.02-2.615.64-3.16 1.276C1.163 11.97 1 12.739 1 13h3c0-1.045.323-2.086.92-3zM1.5 5.5a3 3 0 1 1 6 0 3 3 0 0 1-6 0zm3-2a2 2 0 1 0 0 4 2 2 0 0 0 0-4z"/></svg><svg viewBox="0 0 16 16" class="hbi hbi-person" fill="currentColor" id="person" xmlns="http://www.w3.org/2000/svg"><path fill-rule="evenodd" d="M10 5a2 2 0 1 1-4 0 2 2 0 0 1 4 0zM8 8a3 3 0 1 0 0-6 3 3 0 0 0 0 6zm6 5c0 1-1 1-1 1H3s-1 0-1-1 1-4 6-4 6 3 6 4zm-1-.004c-.001-.246-.154-.986-.832-1.664C11.516 10.68 10.289 10 8 10c-2.29 0-3.516.68-4.168 1.332-.678.678-.83 1.418-.832 1.664h10z"/></svg><svg fill="none" viewBox="0 0 16 16" id="phone" xmlns="http://www.w3.org/2000/svg"><path fill-rule="evenodd" clip-rule="evenodd" d="M3.646 1.324a.678.678 0 0 0-1.015-.063L1.597 2.296c-.483.484-.66 1.17-.45 1.77a17.567 17.567 0 0 0 4.168 6.608 17.568 17.568 0 0 0 6.608 4.168c.601.211 1.286.033 1.77-.45l1.034-1.034a.678.678 0 0 0-.063-1.015l-2.307-1.794a.678.678 0 0 0-.58-.122l-2.19.547a1.745 1.745 0 0 1-1.657-.459L5.474 8.058a1.745 1.745 0 0 1-.46-1.657l.548-2.19a.678.678 0 0 0-.122-.58L3.646 1.324ZM1.876.507A1.745 1.745 0 0 1 4.488.67l1.794 2.306c.33.423.445.974.315 1.494L6.05 6.66a.678.678 0 0 0 .178.643L8.685 9.76a.678.678 0 0 0 .644.178l2.19-.547a1.745 1.745 0 0 1 1.493.315l2.306 1.794c.83.645.905 1.87.163 2.611l-1.034 1.034c-.74.74-1.846 1.065-2.877.702a18.632 18.632 0 0 1-7.01-4.42A18.634 18.634 0 0 1 .14 4.418c-.362-1.03-.037-2.137.703-2.877L1.877.507Z" fill="#000" fill-opacity=".5"/></svg><svg viewBox="0 0 16 16" class="jbi jbi-people" fill="currentColor" id="twitter" xmlns="http://www.w3.org/2000/svg"><path fill-rule="evenodd" d="M15 14s1 0 1-1-1-4-5-4-5 3-5 4 1 1 1 1h8zm-7.978-1h7.956a.274.274 0 0 0 .014-.002l.008-.002c-.002-.264-.167-1.03-.76-1.72C13.688 10.629 12.718 10 11 10c-1.717 0-2.687.63-3.24 1.276-.593.69-.759 1.457-.76 1.72a1.05 1.05 0 0 0 .022.004zM11 7a2 2 0 1 0 0-4 2 2 0 0 0 0 4zm3-2a3 3 0 1 1-6 0 3 3 0 0 1 6 0zM6.936 9.28a5.88 5.88 0 0 0-1.23-.247A7.35 7.35 0 0 0 5 9c-4 0-5 3-5 4 0 .667.333 1 1 1h4.216A2.238 2.238 0 0 1 5 13c0-1.01.377-2.042 1.09-2.904.243-.294.526-.569.846-.816zM4.92 10c-1.668.02-2.615.64-3.16 1.276C1.163 11.97 1 12.739 1 13h3c0-1.045.323-2.086.92-3zM1.5 5.5a3 3 0 1 1 6 0 3 3 0 0 1-6 0zm3-2a2 2 0 1 0 0 4 2 2 0 0 0 0-4z"/></svg></svg>